<svg xmlns="http://www.w3.org/2000/svg" xmlns:xlink="http://www.w3.org/1999/xlink" width="500" zoomAndPan="magnify" viewBox="0 0 375 374.999991" height="500" preserveAspectRatio="xMidYMid meet" version="1.0"><defs><g/><clipPath id="266c08a804"><path d="M 266.765625 163.296875 L 298.265625 163.296875 L 298.265625 206.046875 L 266.765625 206.046875 Z M 266.765625 163.296875 " clip-rule="nonzero"/></clipPath><clipPath id="06773370be"><path d="M 135.199219 176.816406 L 164.449219 176.816406 L 164.449219 206.066406 L 135.199219 206.066406 Z M 135.199219 176.816406 " clip-rule="nonzero"/></clipPath></defs><g fill="#000000" fill-opacity="1"><g transform="translate(6.897437, 204.418907)"><g/></g></g><g fill="#000000" fill-opacity="1"><g transform="translate(19.44429, 204.418907)"><g><path d="M 1.265625 0 L 1.265625 -0.578125 L 2.421875 -0.984375 C 3.179688 -1.210938 3.6875 -1.554688 3.9375 -2.015625 C 4.1875 -2.472656 4.3125 -3.085938 4.3125 -3.859375 L 4.3125 -34 C 4.3125 -34.769531 4.175781 -35.382812 3.90625 -35.84375 C 3.644531 -36.300781 3.128906 -36.664062 2.359375 -36.9375 L 1.265625 -37.390625 L 1.265625 -37.96875 L 15.25 -37.96875 C 20.957031 -37.96875 25.085938 -36.921875 27.640625 -34.828125 C 30.191406 -32.742188 31.46875 -29.992188 31.46875 -26.578125 C 31.46875 -24.390625 30.941406 -22.382812 29.890625 -20.5625 C 28.835938 -18.738281 27.101562 -17.289062 24.6875 -16.21875 C 22.269531 -15.144531 19.007812 -14.609375 14.90625 -14.609375 L 12.9375 -14.609375 L 12.9375 -4.03125 C 12.9375 -2.53125 13.6875 -1.550781 15.1875 -1.09375 L 16.921875 -0.578125 L 16.921875 0 Z M 12.9375 -15.765625 L 15.125 -15.765625 C 17.007812 -15.765625 18.546875 -16.070312 19.734375 -16.6875 C 20.921875 -17.300781 21.800781 -18.375 22.375 -19.90625 C 22.957031 -21.4375 23.25 -23.566406 23.25 -26.296875 C 23.25 -29.054688 22.929688 -31.203125 22.296875 -32.734375 C 21.660156 -34.265625 20.726562 -35.328125 19.5 -35.921875 C 18.269531 -36.515625 16.738281 -36.8125 14.90625 -36.8125 L 12.9375 -36.8125 Z M 12.9375 -15.765625 "/></g></g></g><g fill="#000000" fill-opacity="1"><g transform="translate(51.939045, 204.418907)"><g><path d="M 15.59375 -28.53125 C 18.082031 -28.53125 20.207031 -28.019531 21.96875 -27 C 23.738281 -25.988281 25.09375 -24.609375 26.03125 -22.859375 C 26.96875 -21.117188 27.4375 -19.140625 27.4375 -16.921875 C 27.4375 -16.492188 27.414062 -16.054688 27.375 -15.609375 C 27.34375 -15.171875 27.269531 -14.78125 27.15625 -14.4375 L 10.015625 -14.4375 C 10.046875 -10.300781 10.78125 -7.320312 12.21875 -5.5 C 13.664062 -3.675781 15.804688 -2.765625 18.640625 -2.765625 C 20.554688 -2.765625 22.109375 -3.070312 23.296875 -3.6875 C 24.484375 -4.300781 25.597656 -5.203125 26.640625 -6.390625 L 27.21875 -5.875 C 26.019531 -3.757812 24.429688 -2.109375 22.453125 -0.921875 C 20.484375 0.265625 18.117188 0.859375 15.359375 0.859375 C 12.640625 0.859375 10.222656 0.273438 8.109375 -0.890625 C 6.003906 -2.054688 4.351562 -3.734375 3.15625 -5.921875 C 1.96875 -8.109375 1.375 -10.71875 1.375 -13.75 C 1.375 -16.894531 2.0625 -19.566406 3.4375 -21.765625 C 4.820312 -23.972656 6.597656 -25.648438 8.765625 -26.796875 C 10.941406 -27.953125 13.21875 -28.53125 15.59375 -28.53125 Z M 15.421875 -27.390625 C 14.304688 -27.390625 13.351562 -27.050781 12.5625 -26.375 C 11.78125 -25.707031 11.164062 -24.519531 10.71875 -22.8125 C 10.28125 -21.101562 10.046875 -18.695312 10.015625 -15.59375 L 19.84375 -15.59375 C 20.226562 -19.769531 20.078125 -22.78125 19.390625 -24.625 C 18.703125 -26.46875 17.378906 -27.390625 15.421875 -27.390625 Z M 15.421875 -27.390625 "/></g></g></g><g fill="#000000" fill-opacity="1"><g transform="translate(81.098058, 204.418907)"><g><path d="M 1.15625 0 L 1.15625 -0.578125 L 2.015625 -0.8125 C 2.785156 -1.039062 3.3125 -1.382812 3.59375 -1.84375 C 3.882812 -2.300781 4.03125 -2.894531 4.03125 -3.625 L 4.03125 -21.625 C 4.03125 -22.46875 3.882812 -23.09375 3.59375 -23.5 C 3.3125 -23.90625 2.785156 -24.179688 2.015625 -24.328125 L 1.15625 -24.5625 L 1.15625 -25.140625 L 11.046875 -28.484375 L 11.625 -27.90625 L 12.140625 -22.953125 L 12.140625 -22.5 C 12.671875 -23.570312 13.367188 -24.554688 14.234375 -25.453125 C 15.097656 -26.359375 16.054688 -27.097656 17.109375 -27.671875 C 18.171875 -28.242188 19.21875 -28.53125 20.25 -28.53125 C 21.707031 -28.53125 22.816406 -28.128906 23.578125 -27.328125 C 24.347656 -26.523438 24.734375 -25.507812 24.734375 -24.28125 C 24.734375 -22.976562 24.359375 -21.96875 23.609375 -21.25 C 22.867188 -20.539062 21.976562 -20.1875 20.9375 -20.1875 C 19.332031 -20.1875 17.914062 -20.992188 16.6875 -22.609375 L 16.5625 -22.71875 C 16.1875 -23.257812 15.75 -23.554688 15.25 -23.609375 C 14.75 -23.671875 14.285156 -23.429688 13.859375 -22.890625 C 13.484375 -22.546875 13.171875 -22.132812 12.921875 -21.65625 C 12.671875 -21.175781 12.429688 -20.628906 12.203125 -20.015625 L 12.203125 -3.96875 C 12.203125 -2.4375 12.867188 -1.476562 14.203125 -1.09375 L 16.046875 -0.578125 L 16.046875 0 Z M 1.15625 0 "/></g></g></g><g fill="#000000" fill-opacity="1"><g transform="translate(106.461228, 204.418907)"><g><path d="M 11.109375 0.859375 C 9.222656 0.859375 7.53125 0.640625 6.03125 0.203125 C 4.539062 -0.234375 3.164062 -0.78125 1.90625 -1.4375 L 1.953125 -8.28125 L 2.53125 -8.28125 L 4.484375 -4.828125 C 5.328125 -3.296875 6.253906 -2.15625 7.265625 -1.40625 C 8.285156 -0.65625 9.582031 -0.28125 11.15625 -0.28125 C 13 -0.28125 14.484375 -0.691406 15.609375 -1.515625 C 16.742188 -2.347656 17.3125 -3.453125 17.3125 -4.828125 C 17.3125 -6.097656 16.910156 -7.132812 16.109375 -7.9375 C 15.304688 -8.738281 13.8125 -9.46875 11.625 -10.125 L 9.203125 -10.875 C 6.867188 -11.5625 5.03125 -12.632812 3.6875 -14.09375 C 2.34375 -15.550781 1.671875 -17.335938 1.671875 -19.453125 C 1.671875 -21.984375 2.664062 -24.128906 4.65625 -25.890625 C 6.65625 -27.648438 9.515625 -28.53125 13.234375 -28.53125 C 14.722656 -28.53125 16.128906 -28.367188 17.453125 -28.046875 C 18.785156 -27.722656 20.0625 -27.234375 21.28125 -26.578125 L 20.9375 -20.359375 L 20.359375 -20.359375 L 18.359375 -23.9375 C 17.628906 -25.195312 16.90625 -26.085938 16.1875 -26.609375 C 15.476562 -27.128906 14.414062 -27.390625 13 -27.390625 C 11.695312 -27.390625 10.46875 -27.023438 9.3125 -26.296875 C 8.164062 -25.566406 7.59375 -24.53125 7.59375 -23.1875 C 7.59375 -21.882812 8.082031 -20.847656 9.0625 -20.078125 C 10.039062 -19.304688 11.488281 -18.597656 13.40625 -17.953125 L 16 -17.203125 C 18.757812 -16.359375 20.734375 -15.195312 21.921875 -13.71875 C 23.109375 -12.238281 23.703125 -10.46875 23.703125 -8.40625 C 23.703125 -5.601562 22.597656 -3.359375 20.390625 -1.671875 C 18.191406 0.015625 15.097656 0.859375 11.109375 0.859375 Z M 11.109375 0.859375 "/></g></g></g><g fill="#000000" fill-opacity="1"><g transform="translate(131.590846, 204.418907)"><g/></g></g><g fill="#000000" fill-opacity="1"><g transform="translate(144.128635, 204.418907)"><g/></g></g><g fill="#000000" fill-opacity="1"><g transform="translate(156.666423, 204.418907)"><g/></g></g><g fill="#000000" fill-opacity="1"><g transform="translate(169.247181, 204.418907)"><g><path d="M 1.15625 0 L 1.15625 -0.578125 L 1.953125 -0.8125 C 3.296875 -1.1875 3.96875 -2.125 3.96875 -3.625 L 3.96875 -21.625 C 3.96875 -22.46875 3.832031 -23.09375 3.5625 -23.5 C 3.300781 -23.90625 2.785156 -24.179688 2.015625 -24.328125 L 1.15625 -24.5625 L 1.15625 -25.140625 L 10.984375 -28.484375 L 11.5625 -27.90625 L 12.03125 -24.453125 C 13.363281 -25.640625 14.875 -26.613281 16.5625 -27.375 C 18.25 -28.144531 19.921875 -28.53125 21.578125 -28.53125 C 24.109375 -28.53125 26.050781 -27.835938 27.40625 -26.453125 C 28.769531 -25.078125 29.453125 -22.972656 29.453125 -20.140625 L 29.453125 -3.5625 C 29.453125 -2.070312 30.179688 -1.132812 31.640625 -0.75 L 32.15625 -0.578125 L 32.15625 0 L 18.578125 0 L 18.578125 -0.578125 L 19.328125 -0.8125 C 20.671875 -1.226562 21.34375 -2.164062 21.34375 -3.625 L 21.34375 -21.984375 C 21.34375 -24.429688 20.113281 -25.65625 17.65625 -25.65625 C 15.96875 -25.65625 14.128906 -24.8125 12.140625 -23.125 L 12.140625 -3.5625 C 12.140625 -2.070312 12.8125 -1.132812 14.15625 -0.75 L 14.671875 -0.578125 L 14.671875 0 Z M 1.15625 0 "/></g></g></g><g fill="#000000" fill-opacity="1"><g transform="translate(202.489573, 204.418907)"><g><path d="M 15.59375 -28.53125 C 18.082031 -28.53125 20.207031 -28.019531 21.96875 -27 C 23.738281 -25.988281 25.09375 -24.609375 26.03125 -22.859375 C 26.96875 -21.117188 27.4375 -19.140625 27.4375 -16.921875 C 27.4375 -16.492188 27.414062 -16.054688 27.375 -15.609375 C 27.34375 -15.171875 27.269531 -14.78125 27.15625 -14.4375 L 10.015625 -14.4375 C 10.046875 -10.300781 10.78125 -7.320312 12.21875 -5.5 C 13.664062 -3.675781 15.804688 -2.765625 18.640625 -2.765625 C 20.554688 -2.765625 22.109375 -3.070312 23.296875 -3.6875 C 24.484375 -4.300781 25.597656 -5.203125 26.640625 -6.390625 L 27.21875 -5.875 C 26.019531 -3.757812 24.429688 -2.109375 22.453125 -0.921875 C 20.484375 0.265625 18.117188 0.859375 15.359375 0.859375 C 12.640625 0.859375 10.222656 0.273438 8.109375 -0.890625 C 6.003906 -2.054688 4.351562 -3.734375 3.15625 -5.921875 C 1.96875 -8.109375 1.375 -10.71875 1.375 -13.75 C 1.375 -16.894531 2.0625 -19.566406 3.4375 -21.765625 C 4.820312 -23.972656 6.597656 -25.648438 8.765625 -26.796875 C 10.941406 -27.953125 13.21875 -28.53125 15.59375 -28.53125 Z M 15.421875 -27.390625 C 14.304688 -27.390625 13.351562 -27.050781 12.5625 -26.375 C 11.78125 -25.707031 11.164062 -24.519531 10.71875 -22.8125 C 10.28125 -21.101562 10.046875 -18.695312 10.015625 -15.59375 L 19.84375 -15.59375 C 20.226562 -19.769531 20.078125 -22.78125 19.390625 -24.625 C 18.703125 -26.46875 17.378906 -27.390625 15.421875 -27.390625 Z M 15.421875 -27.390625 "/></g></g></g><g fill="#000000" fill-opacity="1"><g transform="translate(231.648587, 204.418907)"><g><path d="M 1.265625 0 L 1.265625 -0.578125 L 2.46875 -1.03125 C 3.28125 -1.34375 3.789062 -1.71875 4 -2.15625 C 4.207031 -2.59375 4.3125 -3.195312 4.3125 -3.96875 L 4.3125 -34 C 4.3125 -34.769531 4.195312 -35.382812 3.96875 -35.84375 C 3.738281 -36.300781 3.238281 -36.664062 2.46875 -36.9375 L 1.265625 -37.390625 L 1.265625 -37.96875 L 15.9375 -37.96875 L 15.9375 -37.390625 L 14.90625 -36.9375 C 14.175781 -36.664062 13.675781 -36.289062 13.40625 -35.8125 C 13.132812 -35.332031 13 -34.707031 13 -33.9375 L 13 -1.15625 L 21.859375 -1.15625 C 23.273438 -1.15625 24.316406 -1.5 24.984375 -2.1875 C 25.660156 -2.875 26.304688 -3.867188 26.921875 -5.171875 L 29.171875 -10.015625 L 29.75 -10.015625 L 29.21875 0 Z M 1.265625 0 "/></g></g></g><g fill="#000000" fill-opacity="1"><g transform="translate(262.712435, 204.418907)"><g/></g></g><g fill="#000000" fill-opacity="1"><g transform="translate(275.250224, 204.418907)"><g/></g></g><g fill="#000000" fill-opacity="1"><g transform="translate(287.788012, 204.418907)"><g/></g></g><g fill="#000000" fill-opacity="1"><g transform="translate(300.36877, 204.418907)"><g><path d="M 15.421875 0.859375 C 12.804688 0.859375 10.4375 0.296875 8.3125 -0.828125 C 6.1875 -1.960938 4.5 -3.613281 3.25 -5.78125 C 2 -7.945312 1.375 -10.601562 1.375 -13.75 C 1.375 -16.851562 2.054688 -19.507812 3.421875 -21.71875 C 4.785156 -23.925781 6.609375 -25.613281 8.890625 -26.78125 C 11.171875 -27.945312 13.671875 -28.53125 16.390625 -28.53125 C 18.617188 -28.53125 20.5 -28.164062 22.03125 -27.4375 C 23.5625 -26.707031 24.726562 -25.757812 25.53125 -24.59375 C 26.34375 -23.425781 26.75 -22.207031 26.75 -20.9375 C 26.75 -19.863281 26.421875 -19.03125 25.765625 -18.4375 C 25.117188 -17.84375 24.28125 -17.546875 23.25 -17.546875 C 22.132812 -17.546875 21.226562 -17.945312 20.53125 -18.75 C 19.84375 -19.5625 19.441406 -20.617188 19.328125 -21.921875 C 19.285156 -22.765625 19.300781 -23.484375 19.375 -24.078125 C 19.457031 -24.671875 19.460938 -25.273438 19.390625 -25.890625 C 19.234375 -26.535156 18.992188 -26.960938 18.671875 -27.171875 C 18.347656 -27.390625 17.894531 -27.5 17.3125 -27.5 C 14.976562 -27.5 13.164062 -26.484375 11.875 -24.453125 C 10.59375 -22.421875 9.953125 -19.179688 9.953125 -14.734375 C 9.953125 -10.859375 10.671875 -7.894531 12.109375 -5.84375 C 13.546875 -3.789062 15.757812 -2.765625 18.75 -2.765625 C 20.550781 -2.765625 22.007812 -3.085938 23.125 -3.734375 C 24.238281 -4.390625 25.3125 -5.367188 26.34375 -6.671875 L 26.921875 -6.21875 C 25.960938 -3.945312 24.484375 -2.195312 22.484375 -0.96875 C 20.492188 0.25 18.140625 0.859375 15.421875 0.859375 Z M 15.421875 0.859375 "/></g></g></g><g fill="#000000" fill-opacity="1"><g transform="translate(328.780088, 204.418907)"><g><path d="M 1.265625 0 L 1.265625 -0.578125 L 2.125 -0.859375 C 3.425781 -1.285156 4.078125 -2.226562 4.078125 -3.6875 L 4.078125 -34.46875 C 4.078125 -35.226562 3.925781 -35.800781 3.625 -36.1875 C 3.320312 -36.570312 2.785156 -36.878906 2.015625 -37.109375 L 1.265625 -37.28125 L 1.265625 -37.859375 L 11.796875 -40.328125 L 12.484375 -39.8125 L 12.3125 -31.75 L 12.3125 -3.6875 C 12.3125 -2.144531 12.941406 -1.1875 14.203125 -0.8125 L 15.015625 -0.578125 L 15.015625 0 Z M 22.609375 0 L 12.375 -14.390625 L 23.015625 -24.21875 C 23.515625 -24.675781 23.8125 -25.164062 23.90625 -25.6875 C 24 -26.207031 23.660156 -26.582031 22.890625 -26.8125 L 21.921875 -27.09375 L 21.921875 -27.671875 L 30.484375 -27.671875 L 30.484375 -27.09375 L 28.765625 -26.640625 C 27.921875 -26.367188 27.238281 -26.050781 26.71875 -25.6875 C 26.207031 -25.320312 25.585938 -24.8125 24.859375 -24.15625 L 18.40625 -18.125 L 28.703125 -3.796875 C 29.316406 -2.953125 29.890625 -2.300781 30.421875 -1.84375 C 30.960938 -1.382812 31.65625 -1 32.5 -0.6875 L 32.734375 -0.578125 L 32.734375 0 Z M 22.609375 0 "/></g></g></g><g clip-path="url(#266c08a804)"><path fill="#737373" d="M 297 180.777344 L 294.800781 180.777344 L 294.800781 175.429688 C 294.808594 168.738281 289.367188 163.296875 282.675781 163.296875 C 275.984375 163.296875 270.542969 168.738281 270.542969 175.429688 L 270.542969 180.777344 L 268.355469 180.777344 C 267.484375 180.777344 266.777344 181.484375 266.777344 182.351562 L 266.777344 204.839844 C 266.777344 205.703125 267.484375 206.410156 268.355469 206.410156 L 297.007812 206.410156 C 297.878906 206.410156 298.585938 205.703125 298.585938 204.832031 L 298.585938 182.351562 C 298.578125 181.484375 297.871094 180.777344 297 180.777344 Z M 273.699219 175.429688 C 273.699219 170.480469 277.726562 166.453125 282.675781 166.453125 C 287.625 166.453125 291.652344 170.480469 291.652344 175.429688 L 291.652344 180.777344 L 273.699219 180.777344 Z M 284.253906 194.726562 L 284.253906 198.875 C 284.253906 199.746094 283.546875 200.453125 282.675781 200.453125 C 281.804688 200.453125 281.097656 199.746094 281.097656 198.875 L 281.097656 194.726562 C 280.011719 194.15625 279.269531 193.019531 279.269531 191.71875 C 279.269531 189.835938 280.796875 188.320312 282.667969 188.320312 C 284.546875 188.320312 286.066406 189.847656 286.066406 191.71875 C 286.082031 193.019531 285.339844 194.15625 284.253906 194.726562 Z M 284.253906 194.726562 " fill-opacity="1" fill-rule="nonzero"/></g><g clip-path="url(#06773370be)"><path fill="#737373" d="M 160.464844 181.152344 C 157.671875 178.355469 153.953125 176.816406 150 176.816406 C 146.046875 176.816406 142.328125 178.355469 139.535156 181.152344 C 136.738281 183.949219 135.199219 187.664062 135.199219 191.617188 C 135.199219 195.570312 136.738281 199.289062 139.535156 202.082031 C 142.328125 204.878906 146.046875 206.417969 150 206.417969 C 153.953125 206.417969 157.671875 204.878906 160.464844 202.082031 C 163.261719 199.289062 164.800781 195.570312 164.800781 191.617188 C 164.800781 187.664062 163.261719 183.949219 160.464844 181.152344 Z M 140.207031 181.824219 C 142.820312 179.207031 146.300781 177.765625 150 177.765625 C 153.699219 177.765625 157.179688 179.207031 159.792969 181.824219 C 162.410156 184.441406 163.851562 187.917969 163.851562 191.617188 C 163.851562 194.691406 162.855469 197.613281 161.015625 200.015625 C 159.550781 197.96875 157.214844 196.761719 154.675781 196.761719 L 145.320312 196.761719 C 142.785156 196.761719 140.449219 197.96875 138.984375 200.015625 C 137.144531 197.613281 136.148438 194.691406 136.148438 191.617188 C 136.148438 187.917969 137.589844 184.441406 140.207031 181.824219 Z M 150 195.980469 C 153.800781 195.980469 156.894531 192.886719 156.894531 189.085938 C 156.894531 185.28125 153.800781 182.1875 150 182.1875 C 146.195312 182.1875 143.105469 185.28125 143.105469 189.085938 C 143.105469 192.886719 146.195312 195.980469 150 195.980469 Z M 150 195.980469 " fill-opacity="1" fill-rule="nonzero"/></g></svg>