<?xml version="1.0" standalone="no"?>
<!DOCTYPE svg PUBLIC "-//W3C//DTD SVG 20010904//EN"
 "http://www.w3.org/TR/2001/REC-SVG-20010904/DTD/svg10.dtd">
<svg version="1.0" xmlns="http://www.w3.org/2000/svg"
 width="500.000000pt" height="500.000000pt" viewBox="0 0 500.000000 500.000000"
 preserveAspectRatio="xMidYMid meet">

<g transform="translate(0.000000,500.000000) scale(0.100000,-0.100000)"
fill="#000000" stroke="none">
<path d="M3720 2813 c-65 -25 -109 -96 -110 -175 0 -41 -3 -47 -22 -50 -23 -3
-23 -5 -23 -163 l0 -160 203 -3 202 -2 -2 162 c-3 160 -3 163 -25 166 -21 3
-23 9 -23 59 0 73 -29 126 -85 153 -40 19 -84 24 -115 13z m118 -49 c33 -23
52 -67 52 -124 l0 -50 -125 0 -125 0 0 33 c0 97 49 157 129 157 26 0 56 -7 69
-16z m-35 -315 c-3 -72 -17 -114 -38 -114 -16 0 -21 8 -23 35 -2 19 -8 39 -13
45 -30 31 13 91 55 76 16 -7 21 -16 19 -42z"/>
<path d="M4465 2790 c-64 -15 -68 -17 -47 -28 22 -13 22 -15 22 -237 0 -220 0
-224 -22 -239 -21 -15 -16 -16 72 -16 78 0 91 2 76 13 -14 10 -16 26 -14 91
l3 79 67 -91 68 -92 67 0 c63 0 66 1 46 15 -12 8 -56 63 -99 121 l-77 106 58
52 c32 28 70 56 84 63 24 10 20 11 -33 12 -53 1 -57 0 -45 -15 12 -15 5 -25
-61 -85 l-75 -69 -3 162 c-1 90 -6 165 -10 169 -4 3 -38 -2 -77 -11z"/>
<path d="M298 2758 c21 -24 22 -30 22 -236 0 -204 -1 -212 -22 -232 l-22 -20
105 0 c83 1 100 3 84 12 -31 18 -35 28 -35 105 l0 72 48 6 c148 19 216 81 197
183 -17 97 -70 123 -260 130 l-140 5 23 -25z m217 -8 c33 -13 55 -64 54 -127
-1 -98 -34 -143 -106 -143 l-33 0 0 140 0 140 29 0 c16 0 41 -4 56 -10z"/>
<path d="M3128 2760 c21 -20 22 -27 22 -239 0 -215 0 -219 -22 -234 -21 -15
-9 -16 163 -16 l186 -1 7 62 c3 34 4 63 2 65 -2 3 -17 -20 -33 -49 l-28 -53
-82 -3 -83 -3 0 222 c0 215 1 224 22 246 l21 23 -98 0 -99 0 22 -20z"/>
<path d="M825 2631 c-85 -38 -126 -124 -107 -219 14 -67 44 -110 96 -133 74
-33 155 -22 209 29 37 35 34 46 -5 22 -40 -24 -105 -26 -137 -4 -26 19 -51 71
-51 108 l0 25 113 3 112 3 -1 48 c-1 109 -117 169 -229 118z m119 -23 c10 -14
16 -44 16 -75 l0 -53 -66 0 -67 0 6 56 c3 32 13 64 23 75 24 26 69 25 88 -3z"/>
<path d="M1157 2627 c-58 -20 -58 -20 -37 -39 18 -17 20 -31 20 -148 0 -117
-2 -132 -20 -150 l-20 -20 95 0 94 0 -24 25 c-23 23 -25 31 -25 132 0 82 4
114 16 131 19 27 29 28 61 2 14 -11 34 -20 44 -20 43 0 65 63 33 94 -27 27
-70 19 -113 -20 l-40 -35 -3 32 c-2 18 -7 33 -13 34 -5 1 -36 -7 -68 -18z"/>
<path d="M1511 2633 c-38 -19 -71 -66 -71 -101 0 -45 29 -83 83 -108 29 -13
57 -24 63 -24 6 0 23 -9 38 -21 52 -41 20 -102 -53 -102 -49 0 -57 5 -91 59
l-28 44 -4 -37 c-7 -52 -3 -58 41 -72 87 -26 194 -4 227 47 24 36 23 95 -2
129 -12 15 -43 36 -70 47 -27 10 -64 25 -82 34 -66 31 -46 102 29 102 40 0 60
-14 84 -61 9 -16 18 -29 20 -29 3 0 5 20 5 44 0 40 -3 45 -31 55 -46 16 -119
13 -158 -6z"/>
<path d="M2338 2628 c-59 -20 -70 -31 -43 -42 12 -4 15 -30 15 -145 0 -133 -1
-141 -22 -155 -21 -15 -16 -16 71 -16 91 0 93 1 78 18 -14 15 -17 42 -17 155
0 129 1 137 22 151 27 19 69 21 86 4 8 -8 12 -56 12 -152 0 -116 -3 -143 -17
-158 -15 -17 -13 -18 78 -18 86 0 92 1 72 15 -20 14 -22 25 -25 166 l-3 151
-28 24 c-38 32 -98 32 -154 -1 l-43 -24 -6 25 c-7 28 -3 28 -76 2z"/>
<path d="M2822 2629 c-78 -39 -117 -132 -98 -234 8 -43 59 -103 103 -121 72
-30 171 -10 213 44 26 33 18 40 -16 13 -29 -23 -101 -29 -135 -11 -23 13 -44
53 -53 103 l-7 37 115 0 c105 0 115 2 121 20 7 22 -9 87 -28 111 -45 59 -140
75 -215 38z m134 -35 c8 -20 14 -52 12 -72 l-3 -37 -67 -3 -68 -3 7 48 c10 77
27 103 69 103 31 0 37 -4 50 -36z"/>
<path d="M4135 2631 c-83 -37 -126 -132 -105 -228 14 -61 41 -97 93 -122 74
-36 155 -25 210 27 38 37 36 61 -4 28 -22 -19 -42 -26 -73 -26 -77 0 -116 52
-116 157 0 108 28 162 86 166 27 2 29 -1 36 -48 8 -59 36 -89 71 -76 28 10 34
54 12 87 -34 53 -135 69 -210 35z"/>
<path d="M1978 2633 c12 -2 30 -2 40 0 9 3 -1 5 -23 4 -22 0 -30 -2 -17 -4z"/>
<path d="M2100 2607 c0 -2 15 -16 33 -33 l32 -29 -29 33 c-28 30 -36 37 -36
29z"/>
<path d="M1964 2560 c-26 -10 -54 -48 -54 -73 0 -53 63 -106 108 -90 36 13 62
46 62 79 0 46 -9 63 -41 79 -31 17 -44 18 -75 5z"/>
<path d="M2183 2445 c0 -22 2 -30 4 -17 2 12 2 30 0 40 -3 9 -5 -1 -4 -23z"/>
<path d="M1915 2373 c-11 -3 -29 -14 -41 -24 -11 -11 -25 -16 -30 -12 -5 5 0
-3 11 -16 56 -66 175 -80 249 -30 44 29 43 48 -4 71 -34 17 -135 23 -185 11z"/>
</g>
</svg>
